# xmcd CD database file
#
# Track frame offsets:
#	150
#	16250
#	40330
#	57985
#	77015
#	104537
#	119935
#	135717
#	154315
#	175100
#	193065
#
# Disc length: 2837 seconds
#
# Revision: 1
# Processed by: cddbd v1.5PL3 Copyright (c) Steve Scherf et al.
# Submitted via: CDex 1.50beta10
#
DISCID=9a0b130b
DTITLE=Lacy Gibson - Crying For My Baby
DYEAR=1996
DGENRE=Blues
TTITLE0=You'd Better Be Sure
TTITLE1=Easy Woman
TTITLE2=Crying For My Baby
TTITLE3=Chicago Womaen
TTITLE4=Blackjack
TTITLE5=CB Blues
TTITLE6=Bleading For Love
TTITLE7=Take My Love (I Want To Give It All To You)
TTITLE8=My Love Is Real
TTITLE9=Dirty Old Man
TTITLE10=Shake It Baby
EXTD=YEAR: 1996
EXTT0=
EXTT1=
EXTT2=
EXTT3=
EXTT4=
EXTT5=
EXTT6=
EXTT7=
EXTT8=
EXTT9=
EXTT10=
PLAYORDER=
